<mxfile host="app.diagrams.net" modified="2023-05-23T17:42:46.627Z" agent="Mozilla/5.0 (Windows NT 10.0; Win64; x64) AppleWebKit/537.36 (KHTML, like Gecko) Chrome/113.0.0.0 Safari/537.36 Edg/113.0.1774.50" etag="oCmAv-RPKwu8TJxTLfU_" version="21.3.3" type="github">
  <diagram name="PÃ¡gina-1" id="OCa4gqE-BhzuQKYi3Bd6">
    <mxGraphModel dx="880" dy="452" grid="1" gridSize="10" guides="1" tooltips="1" connect="1" arrows="1" fold="1" page="1" pageScale="1" pageWidth="827" pageHeight="1169" math="0" shadow="0">
      <root>
        <mxCell id="0" />
        <mxCell id="1" parent="0" />
        <mxCell id="xi4PFq1QtKVE7VAxXaAT-42" style="edgeStyle=orthogonalEdgeStyle;rounded=0;orthogonalLoop=1;jettySize=auto;html=1;exitX=0.5;exitY=1;exitDx=0;exitDy=0;entryX=0.5;entryY=0;entryDx=0;entryDy=0;" parent="1" source="xi4PFq1QtKVE7VAxXaAT-1" target="xi4PFq1QtKVE7VAxXaAT-11" edge="1">
          <mxGeometry relative="1" as="geometry" />
        </mxCell>
        <mxCell id="xi4PFq1QtKVE7VAxXaAT-1" value="Busco Casos Nuevos" style="rounded=0;whiteSpace=wrap;html=1;" parent="1" vertex="1">
          <mxGeometry x="90" y="40" width="190" height="80" as="geometry" />
        </mxCell>
        <mxCell id="xi4PFq1QtKVE7VAxXaAT-5" value="" style="edgeStyle=orthogonalEdgeStyle;rounded=0;orthogonalLoop=1;jettySize=auto;html=1;" parent="1" edge="1">
          <mxGeometry relative="1" as="geometry">
            <mxPoint x="220" y="240" as="targetPoint" />
          </mxGeometry>
        </mxCell>
        <mxCell id="xi4PFq1QtKVE7VAxXaAT-21" value="SI" style="edgeStyle=orthogonalEdgeStyle;rounded=0;orthogonalLoop=1;jettySize=auto;html=1;" parent="1" edge="1">
          <mxGeometry relative="1" as="geometry">
            <mxPoint x="220" y="270" as="sourcePoint" />
            <mxPoint x="220" y="360" as="targetPoint" />
          </mxGeometry>
        </mxCell>
        <mxCell id="xi4PFq1QtKVE7VAxXaAT-50" value="NO" style="edgeStyle=orthogonalEdgeStyle;rounded=0;orthogonalLoop=1;jettySize=auto;html=1;entryX=0;entryY=0.5;entryDx=0;entryDy=0;" parent="1" source="xi4PFq1QtKVE7VAxXaAT-11" target="xi4PFq1QtKVE7VAxXaAT-51" edge="1">
          <mxGeometry relative="1" as="geometry">
            <mxPoint x="340" y="225" as="targetPoint" />
          </mxGeometry>
        </mxCell>
        <mxCell id="xi4PFq1QtKVE7VAxXaAT-11" value="Hay Casos Nuevos" style="rhombus;whiteSpace=wrap;html=1;rounded=0;" parent="1" vertex="1">
          <mxGeometry x="175" y="180" width="95" height="90" as="geometry" />
        </mxCell>
        <mxCell id="xi4PFq1QtKVE7VAxXaAT-48" value="" style="edgeStyle=orthogonalEdgeStyle;rounded=0;orthogonalLoop=1;jettySize=auto;html=1;" parent="1" source="xi4PFq1QtKVE7VAxXaAT-14" target="xi4PFq1QtKVE7VAxXaAT-47" edge="1">
          <mxGeometry relative="1" as="geometry" />
        </mxCell>
        <mxCell id="xi4PFq1QtKVE7VAxXaAT-14" value="Busco FC en Fusion" style="whiteSpace=wrap;html=1;rounded=0;" parent="1" vertex="1">
          <mxGeometry x="162.5" y="360" width="120" height="40" as="geometry" />
        </mxCell>
        <mxCell id="xi4PFq1QtKVE7VAxXaAT-47" value="Inserto en sat_ticcket_invoices" style="shape=cylinder3;whiteSpace=wrap;html=1;boundedLbl=1;backgroundOutline=1;size=15;" parent="1" vertex="1">
          <mxGeometry x="137.5" y="484.5" width="170" height="67.5" as="geometry" />
        </mxCell>
        <mxCell id="xi4PFq1QtKVE7VAxXaAT-53" value="" style="edgeStyle=orthogonalEdgeStyle;rounded=0;orthogonalLoop=1;jettySize=auto;html=1;" parent="1" source="xi4PFq1QtKVE7VAxXaAT-51" target="xi4PFq1QtKVE7VAxXaAT-52" edge="1">
          <mxGeometry relative="1" as="geometry" />
        </mxCell>
        <mxCell id="xi4PFq1QtKVE7VAxXaAT-59" value="" style="edgeStyle=orthogonalEdgeStyle;rounded=0;orthogonalLoop=1;jettySize=auto;html=1;" parent="1" source="xi4PFq1QtKVE7VAxXaAT-51" target="xi4PFq1QtKVE7VAxXaAT-56" edge="1">
          <mxGeometry relative="1" as="geometry" />
        </mxCell>
        <mxCell id="xi4PFq1QtKVE7VAxXaAT-51" value="Credit Generation" style="shape=process;whiteSpace=wrap;html=1;backgroundOutline=1;" parent="1" vertex="1">
          <mxGeometry x="380" y="195" width="120" height="60" as="geometry" />
        </mxCell>
        <mxCell id="xi4PFq1QtKVE7VAxXaAT-55" value="" style="edgeStyle=orthogonalEdgeStyle;rounded=0;orthogonalLoop=1;jettySize=auto;html=1;" parent="1" source="xi4PFq1QtKVE7VAxXaAT-52" target="xi4PFq1QtKVE7VAxXaAT-54" edge="1">
          <mxGeometry relative="1" as="geometry" />
        </mxCell>
        <mxCell id="xi4PFq1QtKVE7VAxXaAT-52" value="Busco casos en New" style="whiteSpace=wrap;html=1;" parent="1" vertex="1">
          <mxGeometry x="380" y="290" width="120" height="60" as="geometry" />
        </mxCell>
        <mxCell id="xi4PFq1QtKVE7VAxXaAT-54" value="Genero Archivo de Creditos&lt;br&gt;(401-CheckCreditGenerated)" style="shape=cylinder3;whiteSpace=wrap;html=1;boundedLbl=1;backgroundOutline=1;size=15;" parent="1" vertex="1">
          <mxGeometry x="360" y="380" width="170" height="70" as="geometry" />
        </mxCell>
        <mxCell id="xi4PFq1QtKVE7VAxXaAT-58" value="" style="edgeStyle=orthogonalEdgeStyle;rounded=0;orthogonalLoop=1;jettySize=auto;html=1;" parent="1" source="xi4PFq1QtKVE7VAxXaAT-56" target="xi4PFq1QtKVE7VAxXaAT-57" edge="1">
          <mxGeometry relative="1" as="geometry" />
        </mxCell>
        <mxCell id="xi4PFq1QtKVE7VAxXaAT-63" value="" style="edgeStyle=orthogonalEdgeStyle;rounded=0;orthogonalLoop=1;jettySize=auto;html=1;" parent="1" source="xi4PFq1QtKVE7VAxXaAT-56" target="xi4PFq1QtKVE7VAxXaAT-62" edge="1">
          <mxGeometry relative="1" as="geometry" />
        </mxCell>
        <mxCell id="xi4PFq1QtKVE7VAxXaAT-56" value="Check Credit" style="shape=process;whiteSpace=wrap;html=1;backgroundOutline=1;" parent="1" vertex="1">
          <mxGeometry x="550" y="192.5" width="120" height="65" as="geometry" />
        </mxCell>
        <mxCell id="xi4PFq1QtKVE7VAxXaAT-61" value="" style="edgeStyle=orthogonalEdgeStyle;rounded=0;orthogonalLoop=1;jettySize=auto;html=1;" parent="1" source="xi4PFq1QtKVE7VAxXaAT-57" target="xi4PFq1QtKVE7VAxXaAT-60" edge="1">
          <mxGeometry relative="1" as="geometry" />
        </mxCell>
        <mxCell id="xi4PFq1QtKVE7VAxXaAT-57" value="Genero Creditos" style="whiteSpace=wrap;html=1;" parent="1" vertex="1">
          <mxGeometry x="560" y="290" width="120" height="60" as="geometry" />
        </mxCell>
        <mxCell id="xi4PFq1QtKVE7VAxXaAT-60" value="Genero Archivo Check Credit(301-CheckCredit)" style="shape=cylinder3;whiteSpace=wrap;html=1;boundedLbl=1;backgroundOutline=1;size=15;" parent="1" vertex="1">
          <mxGeometry x="540" y="380" width="160" height="70" as="geometry" />
        </mxCell>
        <mxCell id="xi4PFq1QtKVE7VAxXaAT-66" value="" style="edgeStyle=orthogonalEdgeStyle;rounded=0;orthogonalLoop=1;jettySize=auto;html=1;" parent="1" source="xi4PFq1QtKVE7VAxXaAT-62" target="xi4PFq1QtKVE7VAxXaAT-64" edge="1">
          <mxGeometry relative="1" as="geometry" />
        </mxCell>
        <mxCell id="xi4PFq1QtKVE7VAxXaAT-78" style="edgeStyle=orthogonalEdgeStyle;rounded=0;orthogonalLoop=1;jettySize=auto;html=1;entryX=0.5;entryY=0;entryDx=0;entryDy=0;" parent="1" source="xi4PFq1QtKVE7VAxXaAT-62" target="xi4PFq1QtKVE7VAxXaAT-69" edge="1">
          <mxGeometry relative="1" as="geometry" />
        </mxCell>
        <mxCell id="xi4PFq1QtKVE7VAxXaAT-62" value="Create Bulk Files" style="shape=process;whiteSpace=wrap;html=1;backgroundOutline=1;" parent="1" vertex="1">
          <mxGeometry x="730" y="192.5" width="120" height="65" as="geometry" />
        </mxCell>
        <mxCell id="xi4PFq1QtKVE7VAxXaAT-67" value="" style="edgeStyle=orthogonalEdgeStyle;rounded=0;orthogonalLoop=1;jettySize=auto;html=1;" parent="1" source="xi4PFq1QtKVE7VAxXaAT-64" target="xi4PFq1QtKVE7VAxXaAT-65" edge="1">
          <mxGeometry relative="1" as="geometry" />
        </mxCell>
        <mxCell id="xi4PFq1QtKVE7VAxXaAT-64" value="Creo Archivos Masivos" style="whiteSpace=wrap;html=1;" parent="1" vertex="1">
          <mxGeometry x="740" y="290" width="120" height="60" as="geometry" />
        </mxCell>
        <mxCell id="xi4PFq1QtKVE7VAxXaAT-65" value="Genero Archivo Masivo(701-CheckBulkFiles)" style="shape=cylinder3;whiteSpace=wrap;html=1;boundedLbl=1;backgroundOutline=1;size=15;" parent="1" vertex="1">
          <mxGeometry x="720" y="380" width="160" height="70" as="geometry" />
        </mxCell>
        <mxCell id="xi4PFq1QtKVE7VAxXaAT-68" value="" style="edgeStyle=orthogonalEdgeStyle;rounded=0;orthogonalLoop=1;jettySize=auto;html=1;" parent="1" source="xi4PFq1QtKVE7VAxXaAT-69" target="xi4PFq1QtKVE7VAxXaAT-71" edge="1">
          <mxGeometry relative="1" as="geometry" />
        </mxCell>
        <mxCell id="xi4PFq1QtKVE7VAxXaAT-79" style="edgeStyle=orthogonalEdgeStyle;rounded=0;orthogonalLoop=1;jettySize=auto;html=1;entryX=0;entryY=0.5;entryDx=0;entryDy=0;" parent="1" source="xi4PFq1QtKVE7VAxXaAT-69" target="xi4PFq1QtKVE7VAxXaAT-74" edge="1">
          <mxGeometry relative="1" as="geometry" />
        </mxCell>
        <mxCell id="xi4PFq1QtKVE7VAxXaAT-69" value="Move Connections" style="shape=process;whiteSpace=wrap;html=1;backgroundOutline=1;" parent="1" vertex="1">
          <mxGeometry x="910" y="327" width="120" height="65" as="geometry" />
        </mxCell>
        <mxCell id="xi4PFq1QtKVE7VAxXaAT-70" value="" style="edgeStyle=orthogonalEdgeStyle;rounded=0;orthogonalLoop=1;jettySize=auto;html=1;" parent="1" source="xi4PFq1QtKVE7VAxXaAT-71" target="xi4PFq1QtKVE7VAxXaAT-72" edge="1">
          <mxGeometry relative="1" as="geometry" />
        </mxCell>
        <mxCell id="xi4PFq1QtKVE7VAxXaAT-71" value="Mover Conexiones" style="whiteSpace=wrap;html=1;" parent="1" vertex="1">
          <mxGeometry x="920" y="424.5" width="120" height="60" as="geometry" />
        </mxCell>
        <mxCell id="xi4PFq1QtKVE7VAxXaAT-72" value="Genero archivo para conectar (501-Sub-RBP-MoveConections)" style="shape=cylinder3;whiteSpace=wrap;html=1;boundedLbl=1;backgroundOutline=1;size=15;" parent="1" vertex="1">
          <mxGeometry x="900" y="514.5" width="160" height="75.5" as="geometry" />
        </mxCell>
        <mxCell id="xi4PFq1QtKVE7VAxXaAT-73" value="" style="edgeStyle=orthogonalEdgeStyle;rounded=0;orthogonalLoop=1;jettySize=auto;html=1;" parent="1" source="xi4PFq1QtKVE7VAxXaAT-74" target="xi4PFq1QtKVE7VAxXaAT-76" edge="1">
          <mxGeometry relative="1" as="geometry" />
        </mxCell>
        <mxCell id="xi4PFq1QtKVE7VAxXaAT-85" value="" style="edgeStyle=orthogonalEdgeStyle;rounded=0;orthogonalLoop=1;jettySize=auto;html=1;" parent="1" source="xi4PFq1QtKVE7VAxXaAT-74" target="xi4PFq1QtKVE7VAxXaAT-81" edge="1">
          <mxGeometry relative="1" as="geometry" />
        </mxCell>
        <mxCell id="xi4PFq1QtKVE7VAxXaAT-74" value="Move Disconnect" style="shape=process;whiteSpace=wrap;html=1;backgroundOutline=1;" parent="1" vertex="1">
          <mxGeometry x="1080" y="327.5" width="120" height="65" as="geometry" />
        </mxCell>
        <mxCell id="xi4PFq1QtKVE7VAxXaAT-75" value="" style="edgeStyle=orthogonalEdgeStyle;rounded=0;orthogonalLoop=1;jettySize=auto;html=1;" parent="1" source="xi4PFq1QtKVE7VAxXaAT-76" target="xi4PFq1QtKVE7VAxXaAT-77" edge="1">
          <mxGeometry relative="1" as="geometry" />
        </mxCell>
        <mxCell id="xi4PFq1QtKVE7VAxXaAT-76" value="Desconectar" style="whiteSpace=wrap;html=1;" parent="1" vertex="1">
          <mxGeometry x="1090" y="425" width="120" height="60" as="geometry" />
        </mxCell>
        <mxCell id="xi4PFq1QtKVE7VAxXaAT-77" value="Genero archivo para desconectar (601_MoveDisconnects)" style="shape=cylinder3;whiteSpace=wrap;html=1;boundedLbl=1;backgroundOutline=1;size=15;" parent="1" vertex="1">
          <mxGeometry x="1070" y="515" width="160" height="75" as="geometry" />
        </mxCell>
        <mxCell id="xi4PFq1QtKVE7VAxXaAT-80" value="" style="edgeStyle=orthogonalEdgeStyle;rounded=0;orthogonalLoop=1;jettySize=auto;html=1;" parent="1" source="xi4PFq1QtKVE7VAxXaAT-81" target="xi4PFq1QtKVE7VAxXaAT-83" edge="1">
          <mxGeometry relative="1" as="geometry" />
        </mxCell>
        <mxCell id="xi4PFq1QtKVE7VAxXaAT-91" value="" style="edgeStyle=orthogonalEdgeStyle;rounded=0;orthogonalLoop=1;jettySize=auto;html=1;" parent="1" source="xi4PFq1QtKVE7VAxXaAT-81" target="xi4PFq1QtKVE7VAxXaAT-87" edge="1">
          <mxGeometry relative="1" as="geometry" />
        </mxCell>
        <mxCell id="xi4PFq1QtKVE7VAxXaAT-81" value="Check Bulkload" style="shape=process;whiteSpace=wrap;html=1;backgroundOutline=1;" parent="1" vertex="1">
          <mxGeometry x="1260" y="327.5" width="120" height="65" as="geometry" />
        </mxCell>
        <mxCell id="xi4PFq1QtKVE7VAxXaAT-82" value="" style="edgeStyle=orthogonalEdgeStyle;rounded=0;orthogonalLoop=1;jettySize=auto;html=1;" parent="1" source="xi4PFq1QtKVE7VAxXaAT-83" target="xi4PFq1QtKVE7VAxXaAT-84" edge="1">
          <mxGeometry relative="1" as="geometry" />
        </mxCell>
        <mxCell id="xi4PFq1QtKVE7VAxXaAT-83" value="Comprobar Carga" style="whiteSpace=wrap;html=1;" parent="1" vertex="1">
          <mxGeometry x="1270" y="425" width="120" height="60" as="geometry" />
        </mxCell>
        <mxCell id="xi4PFq1QtKVE7VAxXaAT-84" value="Genero archivo para comprobar (601_MoveDisconnects)" style="shape=cylinder3;whiteSpace=wrap;html=1;boundedLbl=1;backgroundOutline=1;size=15;" parent="1" vertex="1">
          <mxGeometry x="1250" y="515" width="160" height="85" as="geometry" />
        </mxCell>
        <mxCell id="xi4PFq1QtKVE7VAxXaAT-86" value="" style="edgeStyle=orthogonalEdgeStyle;rounded=0;orthogonalLoop=1;jettySize=auto;html=1;" parent="1" source="xi4PFq1QtKVE7VAxXaAT-87" target="xi4PFq1QtKVE7VAxXaAT-89" edge="1">
          <mxGeometry relative="1" as="geometry" />
        </mxCell>
        <mxCell id="xi4PFq1QtKVE7VAxXaAT-97" value="" style="edgeStyle=orthogonalEdgeStyle;rounded=0;orthogonalLoop=1;jettySize=auto;html=1;" parent="1" source="xi4PFq1QtKVE7VAxXaAT-87" target="xi4PFq1QtKVE7VAxXaAT-93" edge="1">
          <mxGeometry relative="1" as="geometry" />
        </mxCell>
        <mxCell id="xi4PFq1QtKVE7VAxXaAT-87" value="Check Emission" style="shape=process;whiteSpace=wrap;html=1;backgroundOutline=1;" parent="1" vertex="1">
          <mxGeometry x="1430" y="327" width="120" height="65" as="geometry" />
        </mxCell>
        <mxCell id="xi4PFq1QtKVE7VAxXaAT-88" value="" style="edgeStyle=orthogonalEdgeStyle;rounded=0;orthogonalLoop=1;jettySize=auto;html=1;" parent="1" source="xi4PFq1QtKVE7VAxXaAT-89" target="xi4PFq1QtKVE7VAxXaAT-90" edge="1">
          <mxGeometry relative="1" as="geometry" />
        </mxCell>
        <mxCell id="xi4PFq1QtKVE7VAxXaAT-89" value="Comprobar Emision" style="whiteSpace=wrap;html=1;" parent="1" vertex="1">
          <mxGeometry x="1440" y="424.5" width="120" height="60" as="geometry" />
        </mxCell>
        <mxCell id="xi4PFq1QtKVE7VAxXaAT-90" value="Genero archivo para comprobar Emision (999 - UpdateEmissionStatus)" style="shape=cylinder3;whiteSpace=wrap;html=1;boundedLbl=1;backgroundOutline=1;size=15;" parent="1" vertex="1">
          <mxGeometry x="1420" y="514.5" width="160" height="85" as="geometry" />
        </mxCell>
        <mxCell id="xi4PFq1QtKVE7VAxXaAT-92" value="" style="edgeStyle=orthogonalEdgeStyle;rounded=0;orthogonalLoop=1;jettySize=auto;html=1;" parent="1" source="xi4PFq1QtKVE7VAxXaAT-93" target="xi4PFq1QtKVE7VAxXaAT-95" edge="1">
          <mxGeometry relative="1" as="geometry" />
        </mxCell>
        <mxCell id="xi4PFq1QtKVE7VAxXaAT-104" style="edgeStyle=orthogonalEdgeStyle;rounded=0;orthogonalLoop=1;jettySize=auto;html=1;entryX=0;entryY=0.5;entryDx=0;entryDy=0;" parent="1" source="xi4PFq1QtKVE7VAxXaAT-93" target="xi4PFq1QtKVE7VAxXaAT-99" edge="1">
          <mxGeometry relative="1" as="geometry" />
        </mxCell>
        <mxCell id="xi4PFq1QtKVE7VAxXaAT-93" value="Download Proforma" style="shape=process;whiteSpace=wrap;html=1;backgroundOutline=1;" parent="1" vertex="1">
          <mxGeometry x="1600" y="327.5" width="120" height="65" as="geometry" />
        </mxCell>
        <mxCell id="xi4PFq1QtKVE7VAxXaAT-94" value="" style="edgeStyle=orthogonalEdgeStyle;rounded=0;orthogonalLoop=1;jettySize=auto;html=1;" parent="1" source="xi4PFq1QtKVE7VAxXaAT-95" target="xi4PFq1QtKVE7VAxXaAT-96" edge="1">
          <mxGeometry relative="1" as="geometry" />
        </mxCell>
        <mxCell id="xi4PFq1QtKVE7VAxXaAT-95" value="Descarga Proforma" style="whiteSpace=wrap;html=1;" parent="1" vertex="1">
          <mxGeometry x="1610" y="425" width="120" height="60" as="geometry" />
        </mxCell>
        <mxCell id="xi4PFq1QtKVE7VAxXaAT-96" value="Genero archivo descarga (DownloadProformaRebill)" style="shape=cylinder3;whiteSpace=wrap;html=1;boundedLbl=1;backgroundOutline=1;size=15;" parent="1" vertex="1">
          <mxGeometry x="1590" y="515" width="160" height="85" as="geometry" />
        </mxCell>
        <mxCell id="xi4PFq1QtKVE7VAxXaAT-98" value="" style="edgeStyle=orthogonalEdgeStyle;rounded=0;orthogonalLoop=1;jettySize=auto;html=1;" parent="1" source="xi4PFq1QtKVE7VAxXaAT-99" target="xi4PFq1QtKVE7VAxXaAT-101" edge="1">
          <mxGeometry relative="1" as="geometry" />
        </mxCell>
        <mxCell id="xi4PFq1QtKVE7VAxXaAT-99" value="Send Proforma" style="shape=process;whiteSpace=wrap;html=1;backgroundOutline=1;" parent="1" vertex="1">
          <mxGeometry x="1770" y="327.5" width="120" height="65" as="geometry" />
        </mxCell>
        <mxCell id="xi4PFq1QtKVE7VAxXaAT-100" value="" style="edgeStyle=orthogonalEdgeStyle;rounded=0;orthogonalLoop=1;jettySize=auto;html=1;" parent="1" source="xi4PFq1QtKVE7VAxXaAT-101" target="xi4PFq1QtKVE7VAxXaAT-102" edge="1">
          <mxGeometry relative="1" as="geometry" />
        </mxCell>
        <mxCell id="xi4PFq1QtKVE7VAxXaAT-101" value="Enviar Proforma" style="whiteSpace=wrap;html=1;" parent="1" vertex="1">
          <mxGeometry x="1780" y="425" width="120" height="60" as="geometry" />
        </mxCell>
        <mxCell id="xi4PFq1QtKVE7VAxXaAT-102" value="Genero archivo para enviar la proforma (SendProforma)" style="shape=cylinder3;whiteSpace=wrap;html=1;boundedLbl=1;backgroundOutline=1;size=15;" parent="1" vertex="1">
          <mxGeometry x="1760" y="515" width="160" height="85" as="geometry" />
        </mxCell>
      </root>
    </mxGraphModel>
  </diagram>
</mxfile>
